<svg width="14" height="12" viewBox="0 0 14 12" fill="none" xmlns="http://www.w3.org/2000/svg">
<path d="M13.125 5.14347H2.7475L5.92375 1.40666C6.07227 1.23163 6.14373 1.00599 6.12239 0.779355C6.10106 0.552724 5.98869 0.343676 5.81 0.198198C5.63131 0.0527213 5.40094 -0.0172684 5.16957 0.00362668C4.93819 0.0245217 4.72477 0.13459 4.57625 0.309617L0.20125 5.45201C0.171816 5.49292 0.145494 5.53589 0.1225 5.58057C0.1225 5.62343 0.1225 5.64914 0.0612502 5.69199C0.0215894 5.79026 0.000823481 5.89487 0 6.00054C0.000823481 6.1062 0.0215894 6.21081 0.0612502 6.30908C0.0612502 6.35193 0.0612499 6.37764 0.1225 6.4205C0.145494 6.46519 0.171816 6.50816 0.20125 6.54906L4.57625 11.6915C4.65852 11.7882 4.76154 11.866 4.87799 11.9193C4.99444 11.9727 5.12145 12.0002 5.25 12C5.45445 12.0004 5.65258 11.9306 5.81 11.8029C5.8986 11.7309 5.97184 11.6426 6.02552 11.5428C6.07921 11.4431 6.11228 11.334 6.12284 11.2218C6.13341 11.1095 6.12126 10.9963 6.0871 10.8887C6.05294 10.781 5.99743 10.681 5.92375 10.5944L2.7475 6.8576H13.125C13.3571 6.8576 13.5796 6.7673 13.7437 6.60657C13.9078 6.44584 14 6.22784 14 6.00054C14 5.77323 13.9078 5.55523 13.7437 5.3945C13.5796 5.23377 13.3571 5.14347 13.125 5.14347Z" fill="#161C26"/>
</svg>
